{"accessors":{"accessor_0":{"bufferView":"bufferView_0","byteOffset":79632,"byteStride":0,"componentType":5123,"count":9954,"min":[0,0,0],"max":[65535,65535,65535],"type":"VEC3","extensions":{"WEB3D_quantized_attributes":{"decodedMin":[-287730.75,-55055.73046875,-248054.046875],"decodedMax":[265974.34375,136774.4375,312311.15625],"decodeMatrix":[8.448998149843595,0,0,0,0,2.927140733482109,0,0,0,0,8.550624904631114,0,-287730.75,-55055.73046875,-248054.046875,1]}}},"accessor_1":{"bufferView":"bufferView_0","byteOffset":139356,"byteStride":0,"componentType":5121,"count":9954,"min":[0,0],"max":[255,255],"type":"VEC2"},"accessor_2":{"bufferView":"bufferView_0","byteOffset":0,"byteStride":0,"componentType":5126,"count":9954,"min":[-670.9871215820312,-198.4656982421875],"max":[259.6521911621094,281.80419921875],"type":"VEC2"},"accessor_3":{"bufferView":"bufferView_1","byteOffset":0,"byteStride":0,"componentType":5123,"count":4074,"min":[0],"max":[5490],"type":"SCALAR"},"accessor_4":{"bufferView":"bufferView_1","byteOffset":8148,"byteStride":0,"componentType":5123,"count":17628,"min":[1908],"max":[9907],"type":"SCALAR"},"accessor_5":{"bufferView":"bufferView_1","byteOffset":43404,"byteStride":0,"componentType":5123,"count":762,"min":[3485],"max":[6077],"type":"SCALAR"},"accessor_6":{"bufferView":"bufferView_1","byteOffset":44928,"byteStride":0,"componentType":5123,"count":114,"min":[6127],"max":[6147],"type":"SCALAR"},"accessor_7":{"bufferView":"bufferView_1","byteOffset":45156,"byteStride":0,"componentType":5123,"count":2859,"min":[6275],"max":[6977],"type":"SCALAR"},"accessor_8":{"bufferView":"bufferView_1","byteOffset":50874,"byteStride":0,"componentType":5123,"count":198,"min":[7718],"max":[9953],"type":"SCALAR"},"accessor_9":{"bufferView":"bufferView_1","byteOffset":51270,"byteStride":0,"componentType":5123,"count":3360,"min":[7754],"max":[8393],"type":"SCALAR"}},"asset":{"generator":"obj2gltf","profile":{"api":"WebGL","version":"1.0"},"version":"1.0","premultipliedAlpha":true},"buffers":{"buffer":{"byteLength":217254,"uri":"data:application/octet-stream;base64,","type":"arraybuffer"}},"bufferViews":{"bufferView_0":{"buffer":"buffer","byteLength":159264,"byteOffset":0,"target":34962},"bufferView_1":{"buffer":"buffer","byteLength":57990,"byteOffset":159264,"target":34963}},"extensionsUsed":["WEB3D_quantized_attributes"],"images":{},"materials":{"767_cromado1":{"technique":"technique0","values":{"ambient":[0,0,0,1],"diffuse":[0.5,0.5,0.5,1],"emission":[0,0,0,1],"specular":[0,0,0,1],"shininess":0,"transparency":1}},"767_cromado":{"technique":"technique0","values":{"ambient":[0,0,0,1],"diffuse":[0.5,0.5,0.5,1],"emission":[0,0,0,1],"specular":[0,0,0,1],"shininess":0,"transparency":1}},"767_alainferior":{"technique":"technique0","values":{"ambient":[0,0,0,1],"diffuse":[0.5,0.5,0.5,1],"emission":[0,0,0,1],"specular":[0,0,0,1],"shininess":0,"transparency":1}},"767_atrasero":{"technique":"technique0","values":{"ambient":[0,0,0,1],"diffuse":[0.5,0.5,0.5,1],"emission":[0,0,0,1],"specular":[0,0,0,1],"shininess":0,"transparency":1}},"767_fuselaje":{"technique":"technique0","values":{"ambient":[0,0,0,1],"diffuse":[0.5,0.5,0.5,1],"emission":[0,0,0,1],"specular":[0,0,0,1],"shininess":0,"transparency":1}},"767_cristal":{"technique":"technique0","values":{"ambient":[0,0,0,1],"diffuse":[0.5,0.5,0.5,1],"emission":[0,0,0,1],"specular":[0,0,0,1],"shininess":0,"transparency":1}},"767_neumaticos":{"technique":"technique0","values":{"ambient":[0,0,0,1],"diffuse":[0.5,0.5,0.5,1],"emission":[0,0,0,1],"specular":[0,0,0,1],"shininess":0,"transparency":1}}},"meshes":{"767_ala_iz_1":{"name":"767_ala_iz_1","primitives":[{"attributes":{"POSITION":"accessor_0","NORMAL":"accessor_1","TEXCOORD_0":"accessor_2"},"indices":"accessor_3","material":"767_cromado1","mode":4},{"attributes":{"POSITION":"accessor_0","NORMAL":"accessor_1","TEXCOORD_0":"accessor_2"},"indices":"accessor_4","material":"767_cromado","mode":4},{"attributes":{"POSITION":"accessor_0","NORMAL":"accessor_1","TEXCOORD_0":"accessor_2"},"indices":"accessor_5","material":"767_alainferior","mode":4},{"attributes":{"POSITION":"accessor_0","NORMAL":"accessor_1","TEXCOORD_0":"accessor_2"},"indices":"accessor_6","material":"767_atrasero","mode":4},{"attributes":{"POSITION":"accessor_0","NORMAL":"accessor_1","TEXCOORD_0":"accessor_2"},"indices":"accessor_7","material":"767_fuselaje","mode":4},{"attributes":{"POSITION":"accessor_0","NORMAL":"accessor_1","TEXCOORD_0":"accessor_2"},"indices":"accessor_8","material":"767_cristal","mode":4},{"attributes":{"POSITION":"accessor_0","NORMAL":"accessor_1","TEXCOORD_0":"accessor_2"},"indices":"accessor_9","material":"767_neumaticos","mode":4}]}},"nodes":{"767_ala_iz":{"name":"767_ala_iz","meshes":["767_ala_iz_1"],"children":[],"matrix":[1,0,0,0,0,1,0,0,0,0,1,0,0,0,0,1]}},"samplers":{},"scene":"scene","scenes":{"scene":{"nodes":["767_ala_iz"]}},"textures":{},"animations":{},"cameras":{},"programs":{"program0":{"attributes":["a_position","a_normal","a_texcoord_0"],"fragmentShader":"fragmentShader0","vertexShader":"vertexShader0"}},"shaders":{"vertexShader0":{"type":35633,"uri":"data:text/plain;base64,"},"fragmentShader0":{"type":35632,"uri":"data:text/plain;base64,"}},"skins":{},"techniques":{"technique0":{"attributes":{"a_position":"position","a_normal":"normal","a_texcoord_0":"texcoord_0"},"parameters":{"modelViewMatrix":{"semantic":"MODELVIEW","type":35676},"projectionMatrix":{"semantic":"PROJECTION","type":35676},"normalMatrix":{"semantic":"MODELVIEWINVERSETRANSPOSE","type":35675},"ambient":{"type":35666},"diffuse":{"type":35666},"emission":{"type":35666},"specular":{"type":35666},"shininess":{"type":5126},"transparency":{"type":5126},"position":{"semantic":"POSITION","type":35665},"normal":{"semantic":"NORMAL","type":35667},"texcoord_0":{"semantic":"TEXCOORD_0","type":5126}},"program":"program0","states":{"enable":[2884,2929]},"uniforms":{"u_modelViewMatrix":"modelViewMatrix","u_projectionMatrix":"projectionMatrix","u_normalMatrix":"normalMatrix","u_ambient":"ambient","u_diffuse":"diffuse","u_emission":"emission","u_specular":"specular","u_shininess":"shininess","u_transparency":"transparency"}}}}
